<?xml version="1.0" encoding="utf-8"?>
<svg height="100px" width="100px" version="1.1" id="Layer_1" viewBox="0 0 512.002 512.002" xmlns="http://www.w3.org/2000/svg">
  <defs/>
  <g>
    <path style="fill:#999999;" d="M145.687,374.175c0-13.504-10.951-24.455-24.455-24.455c-13.516,0-24.467,10.951-24.467,24.455&#10;&#9;&#9;s10.951,24.455,24.467,24.455C134.736,398.63,145.687,387.679,145.687,374.175z"/>
    <path style="fill:#999999;" d="M231.205,378.426c0-11.159-9.045-20.204-20.204-20.204c-11.147,0-20.192,9.045-20.192,20.204&#10;&#9;&#9;s9.045,20.204,20.192,20.204C222.16,398.63,231.205,389.585,231.205,378.426z"/>
    <path style="fill:#999999;" d="M332.952,372.615c0-14.37-11.656-26.026-26.026-26.026c-14.359,0-26.014,11.656-26.014,26.026&#10;&#9;&#9;c0,14.37,11.656,26.014,26.014,26.014C321.297,398.63,332.952,386.986,332.952,372.615z"/>
    <path style="fill:#999999;" d="M392.975,358.557c4.875-3.315,8.075-8.906,8.075-15.248c0-10.177-8.259-18.437-18.437-18.437&#10;&#9;&#9;c-10.189,0-18.448,8.259-18.448,18.437c0,10.189,8.259,18.437,18.448,18.437C386.448,361.745,390.029,360.567,392.975,358.557z"/>
    <path style="fill:#999999;" d="M31.025,369.289c2.403,0.866,4.99,1.34,7.693,1.34c12.441,0,22.537-10.085,22.537-22.537&#10;&#9;&#9;c0-12.441-10.096-22.537-22.537-22.537c-12.453,0-22.537,10.096-22.537,22.537c0,9.727,6.157,18.009,14.786,21.174&#10;&#9;&#9;C30.99,369.265,31.002,369.277,31.025,369.289z"/>
  </g>
  <g>
    <path style="fill:#06B559;" d="M233.099,174.515v14.151h-5.302H165.73v-14.151c0-6.758,5.476-12.233,12.233-12.233h42.903&#10;&#9;&#9;C227.624,162.282,233.099,167.757,233.099,174.515z"/>
  </g>
  <path style="fill:#088443;" d="M392.975,358.557l-29.445,28.244c-7.901,7.589-18.437,11.829-29.388,11.829h-27.216&#10;&#9;c14.37,0,26.026-11.644,26.026-26.014c0-14.37-11.656-26.026-26.026-26.026c-14.359,0-26.014,11.656-26.014,26.026&#10;&#9;c0,14.37,11.656,26.014,26.014,26.014h-95.926c11.159,0,20.204-9.045,20.204-20.204s-9.045-20.204-20.204-20.204&#10;&#9;c-11.147,0-20.192,9.045-20.192,20.204s9.045,20.204,20.192,20.204h-89.768c13.504,0,24.455-10.951,24.455-24.455&#10;&#9;s-10.951-24.455-24.455-24.455c-13.516,0-24.467,10.951-24.467,24.455s10.951,24.455,24.467,24.455h-18.102&#10;&#9;c-6.457,0-12.846-1.259-18.829-3.685l-53.277-25.656c2.403,0.866,4.99,1.34,7.693,1.34c12.441,0,22.537-10.085,22.537-22.537&#10;&#9;c0-12.441-10.096-22.537-22.537-22.537l343.895-0.682c-10.189,0-18.448,8.259-18.448,18.437c0,10.189,8.259,18.437,18.448,18.437&#10;&#9;C386.448,361.745,390.029,360.567,392.975,358.557z"/>
  <path style="fill:#06B559;" d="M287.127,247.995v11.171H106.4v-11.171c0-7.867,1.559-15.572,4.517-22.711&#10;&#9;c2.957-7.127,7.301-13.677,12.857-19.245c11.124-11.124,26.222-17.374,41.956-17.374h62.067c7.867,0,15.572,1.559,22.711,4.517&#10;&#9;c7.127,2.946,13.677,7.289,19.245,12.857c1.109,1.109,2.172,2.253,3.177,3.442c5.649,6.608,9.738,14.359,12.037,22.653&#10;&#9;C286.387,237.252,287.127,242.589,287.127,247.995z"/>
  <path style="fill:#0B9B53;" d="M157.699,225.286c2.957-7.127,7.301-13.677,12.857-19.245c11.124-11.124,26.222-17.374,41.956-17.374&#10;&#9;H165.73c-15.733,0-30.832,6.249-41.956,17.374c-5.556,5.568-9.9,12.118-12.857,19.245c-2.957,7.139-4.517,14.844-4.517,22.711&#10;&#9;v11.171h46.782v-11.171C153.182,240.129,154.742,232.424,157.699,225.286z"/>
  <polygon style="fill:#06B559;" points="352.336,294.572 56.069,294.572 41.191,294.572 59.823,259.166 106.4,259.166&#10;&#9;287.127,259.166 307.619,259.166 "/>
  <polygon style="fill:#0B9B53;" points="106.4,259.166 59.823,259.166 41.191,294.573 56.069,294.573 101.835,294.573&#10;&#9;120.468,259.166 "/>
  <g>
    <path style="fill:#333333;" d="M382.607,316.208c-0.006,0-343.907,0.684-343.907,0.684c-17.196,0.009-31.184,14.002-31.184,31.2&#10;&#9;&#9;c0,13.229,8.28,24.554,19.928,29.085l53.095,25.569c0.163,0.079,0.329,0.152,0.497,0.221c7.063,2.869,14.497,4.325,22.097,4.325&#10;&#9;&#9;h231.004c13.26,0,25.83-5.056,35.396-14.238l28.988-27.821c6.775-4.931,11.191-12.918,11.191-21.921&#10;&#9;&#9;C409.711,328.367,397.552,316.208,382.607,316.208z M392.384,343.312c0,5.39-4.385,9.775-9.775,9.775&#10;&#9;&#9;c-5.391,0-9.776-4.385-9.776-9.775c0-5.391,4.385-9.776,9.776-9.776C387.997,333.536,392.384,337.921,392.384,343.312z&#10;&#9;&#9; M38.717,334.219c7.65,0,13.874,6.224,13.874,13.874s-6.224,13.874-13.874,13.874s-13.874-6.224-13.874-13.874&#10;&#9;&#9;S31.068,334.219,38.717,334.219z M105.434,374.174c0-8.709,7.085-15.794,15.794-15.794s15.794,7.085,15.794,15.794&#10;&#9;&#9;c0,8.694-7.062,15.766-15.748,15.79h-0.089C112.496,389.94,105.434,382.866,105.434,374.174z M199.469,378.428&#10;&#9;&#9;c0-6.362,5.176-11.538,11.538-11.538s11.538,5.175,11.538,11.538c0,6.346-5.152,11.511-11.493,11.536h-0.089&#10;&#9;&#9;C204.621,389.94,199.469,384.776,199.469,378.428z M289.577,372.611c0-9.569,7.786-17.355,17.355-17.355&#10;&#9;&#9;c9.569,0,17.355,7.786,17.355,17.355c0,9.554-7.762,17.329-17.31,17.353h-0.089C297.338,389.94,289.577,382.165,289.577,372.611z&#10;&#9;&#9; M357.534,380.554c-5.693,5.464-12.998,8.709-20.794,9.303c3.092-4.924,4.876-10.78,4.876-17.244&#10;&#9;&#9;c0-19.124-15.559-34.683-34.683-34.683c-19.124,0-34.683,15.559-34.683,34.683c0,6.512,1.807,12.407,4.941,17.353h-39.867&#10;&#9;&#9;c1.632-3.435,2.548-7.318,2.548-11.536c0-15.916-12.948-28.865-28.865-28.865s-28.865,12.948-28.865,28.865&#10;&#9;&#9;c0,4.218,0.916,8.099,2.548,11.536h-34.373c2.561-4.698,4.032-10.073,4.032-15.79c0-18.263-14.858-33.121-33.121-33.121&#10;&#9;&#9;s-33.12,14.857-33.12,33.12c0,5.018,1.138,9.77,3.144,14.038c-1.162-0.35-2.314-0.746-3.451-1.2l-29.852-14.376&#10;&#9;&#9;c7.28-5.717,11.97-14.59,11.97-24.543c0-5.004-1.191-9.733-3.293-13.929l290.691-0.578c-1.166,3.021-1.811,6.299-1.811,9.725&#10;&#9;&#9;c0,10.747,6.286,20.051,15.375,24.432L357.534,380.554z"/>
    <path style="fill:#333333;" d="M 295.061 237.947 C 293.56 227.328 286.791 207.47 276.882 198.623 C 265.066 188.074 254.06 184.487 241.758 181.44 L 241.758 174.509 C 241.758 162.99 232.386 153.619 220.868 153.619 L 177.956 153.619 C 166.437 153.619 157.066 162.99 157.066 174.509 L 157.066 180.564 C 142.187 182.445 128.426 189.139 117.649 199.915 C 104.806 212.758 97.733 229.833 97.733 247.996 L 97.733 250.505 L 59.819 250.505 C 56.602 250.505 53.65 252.287 52.152 255.134 L 34.735 288.225 C 28.599 289.568 22.58 291.473 16.727 293.981 L 5.253 298.9 C 0.855 300.785 -1.182 305.878 0.703 310.276 C 2.588 314.675 7.681 316.71 12.079 314.826 L 23.553 309.908 C 33.887 305.479 44.828 303.233 56.072 303.233 L 352.34 303.233 L 386.778 303.233 L 405.748 316.084 C 407.237 317.092 408.927 317.576 410.6 317.576 C 413.377 317.576 416.106 316.243 417.781 313.771 C 420.464 309.809 419.428 304.422 415.467 301.739 L 394.296 287.398 C 392.861 286.427 391.169 285.907 389.436 285.907 L 355.356 285.907 L 313.003 252.377 C 311.472 251.165 309.578 250.506 307.626 250.506 L 295.795 250.506 L 295.795 247.997 C 295.795 244.602 295.761 242.897 295.061 237.947 Z M 174.395 174.509 C 174.395 172.544 175.993 170.946 177.958 170.946 L 220.87 170.946 C 222.835 170.946 224.433 172.544 224.433 174.509 L 224.433 180.001 L 174.396 180.001 L 174.395 174.509 Z M 327.44 285.907 L 56.075 285.907 L 55.539 285.907 L 65.051 267.833 L 304.612 267.833 L 327.44 285.907 Z M 115.063 250.506 L 115.063 247.997 C 115.063 234.463 120.334 221.74 129.903 212.169 C 139.472 202.6 152.197 197.329 165.731 197.329 L 227.797 197.329 C 241.331 197.329 254.055 202.6 263.625 212.169 C 273.194 221.74 278.466 234.464 278.466 247.997 L 278.466 250.506 L 115.063 250.506 Z"/>
  </g>
</svg>