<?xml version="1.0" encoding="utf-8"?>
<svg height="35px" width="100px" version="1.1" id="Layer_1" viewBox="-3.165 167.202 509.517 172.475" xmlns="http://www.w3.org/2000/svg">
  <defs/>
  <g transform="translate(1 1)">
    <polygon style="fill: rgb(252, 195, 9); transform-box: fill-box; transform-origin: 50% 50%;" points="79.408 248.468 79.408 223.287 -4.527 223.287 -4.527 248.468 -12.92 248.468 -12.92 282.041 87.801 282.041 87.801 248.468" transform="matrix(0, 1, -1, 0, -0.00002, -0.000021)"/>
    <polygon style="fill: rgb(253, 152, 8); transform-box: fill-box; transform-origin: 50% 50%;" points="45.834 307.222 45.834 282.041 20.654 282.041 20.654 307.222 29.047 307.222 29.047 340.795 54.227 340.795 54.227 307.222" transform="matrix(0, 1, -1, 0, 0, -0.000001)"/>
    <polygon style="fill: rgb(255, 255, 255); transform-box: fill-box; transform-origin: 50% 50%;" points="54.227 189.713 54.227 164.532 29.047 164.532 29.047 189.713 20.653 189.713 20.653 223.286 45.834 223.286 45.834 189.713" transform="matrix(0, 1, -1, 0, -0.000002, 0.000004)"/>
    <polygon style="fill: rgb(255, 221, 9); transform-box: fill-box; transform-origin: 50% 50%;" points="142.358 378.565 243.079 378.565 243.079 126.762 142.358 126.762" transform="matrix(0, 1, -1, 0, -0.00002, -0.000011)"/>
    <polygon style="fill: rgb(255, 255, 255); transform-box: fill-box; transform-origin: 50% 50%;" points="180.129 315.615 205.31 315.615 205.31 63.812 180.129 63.812" transform="matrix(0, 1, -1, 0, -0.000003, -0.000006)"/>
    <polygon style="fill: rgb(253, 152, 8); transform-box: fill-box; transform-origin: 50% 50%;" points="180.128 441.516 205.309 441.516 205.309 189.713 180.128 189.713" transform="matrix(0, 1, -1, 0, -0.000025, -0.000016)"/>
    <path style="fill: rgb(252, 195, 9); transform-box: fill-box; transform-origin: 50% 50%;" d="M 448.718 340.796 L 364.783 340.796 L 364.783 298.829 C 364.783 245.95 380.731 196.429 406.75 164.534 C 432.771 196.429 448.718 245.95 448.718 298.829 L 448.718 340.796 Z" transform="matrix(0, 1, -1, 0, -0.000021, -0.000007)"/>
    <path style="fill: rgb(255, 255, 255); transform-box: fill-box; transform-origin: 50% 50%;" d="M 373.177 265.254 L 373.177 307.221 L 398.357 307.221 L 398.357 265.254 C 398.357 212.374 414.305 162.853 440.324 130.958 C 398.357 162.853 373.177 212.374 373.177 265.254" transform="matrix(0, 1, -1, 0, 0.000024, -0.000026)"/>
    <path style="fill: rgb(253, 152, 8); transform-box: fill-box; transform-origin: 50% 50%;" d="M 373.177 198.106 C 399.197 230.001 415.144 279.522 415.144 332.401 L 415.144 374.368 L 440.324 374.368 L 440.324 332.401 C 440.325 279.522 415.145 230.001 373.177 198.106" transform="matrix(0, 1, -1, 0, 0.000032, -0.000018)"/>
    <path d="M 268.26 386.958 L 117.177 386.958 C 112.141 386.958 108.784 383.601 108.784 378.565 L 108.784 126.761 C 108.784 121.725 112.141 118.368 117.177 118.368 L 268.26 118.368 C 273.296 118.368 276.653 121.725 276.653 126.761 L 276.653 378.564 C 276.654 383.6 273.296 386.958 268.26 386.958 Z M 125.572 370.171 L 259.867 370.171 L 259.867 135.155 L 125.572 135.155 L 125.572 370.171 Z" style="transform-box: fill-box; transform-origin: 50% 50%;" transform="matrix(0, 1, -1, 0, 0.000001, 0.00001)"/>
    <path d="M 121.374 273.646 L -12.921 273.646 C -17.957 273.646 -21.314 270.289 -21.314 265.253 L -21.314 240.073 C -21.314 235.037 -17.957 231.68 -12.921 231.68 L 121.374 231.68 C 126.41 231.68 129.767 235.037 129.767 240.073 L 129.767 265.253 C 129.767 270.289 126.41 273.646 121.374 273.646 Z M -4.528 256.859 L 112.98 256.859 L 112.98 248.466 L -4.528 248.466 L -4.528 256.859 Z" style="transform-box: fill-box; transform-origin: 50% 50%;" transform="matrix(0, 1, -1, 0, -0.000013, -0.00001)"/>
    <path d="M 100.389 277.844 L -50.693 277.844 C -55.729 277.844 -59.086 274.487 -59.086 269.451 L -59.086 235.877 C -59.086 230.841 -55.729 227.484 -50.693 227.484 L 100.389 227.484 C 105.425 227.484 108.782 230.841 108.782 235.877 L 108.782 269.451 C 108.783 274.486 105.425 277.844 100.389 277.844 Z M -42.299 261.057 L 91.996 261.057 L 91.996 244.27 L -42.299 244.27 L -42.299 261.057 Z" style="transform-box: fill-box; transform-origin: 50% 50%;" transform="matrix(0, 1, -1, 0, -0.000021, -0.000019)"/>
    <path d="M 473.686 348.979 L 339.391 348.979 C 334.355 348.979 330.998 345.622 330.998 340.586 L 330.998 298.618 C 330.998 244.061 357.018 191.182 401.503 157.608 C 404.86 155.929 408.218 155.929 411.575 157.608 C 456.06 191.182 482.08 244.06 482.08 298.618 L 482.08 340.586 C 482.079 345.621 478.722 348.979 473.686 348.979 Z M 347.784 332.192 L 465.292 332.192 L 465.292 298.617 C 465.292 250.774 443.469 205.45 406.538 175.233 C 369.607 205.449 347.784 250.774 347.784 298.617 L 347.784 332.192 Z" style="transform-box: fill-box; transform-origin: 50% 50%;" transform="matrix(0, 1, -1, 0, -0.000023, 0.000033)"/>
  </g>
</svg>