<?xml version="1.0" encoding="utf-8"?>
<svg height="50px" width="100px" version="1.1" id="Layer_1" viewBox="259 144 254 61" xmlns="http://www.w3.org/2000/svg">
  <defs/>
  <g style="transform-origin: 466.479px 143.817px;" transform="matrix(0.927184, 0.374607, -0.374607, 0.927184, 4.788762, 30.465033)">
    <polygon style="fill:#06B559;" points="488.196,113.372 503.34,150.129 444.761,174.261 442.162,167.942 432.216,143.834&#10;&#9;&#9;429.617,137.515 &#9;"/>
  </g>
  <path style="fill: rgb(11, 155, 83); transform-box: fill-box; transform-origin: 50% 50%;" d="M 428.391 130.276 L 438.337 154.384 L 283.301 218.288 L 281.141 218.577 C 278.842 210.283 274.753 202.532 269.104 195.924 L 428.391 130.276 Z" transform="matrix(0.927184, 0.374607, -0.374607, 0.927184, -0.000002, 0.000008)"/>
  <g style="transform-origin: 390.509px 171.367px;" transform="matrix(0.927184, 0.374607, -0.374607, 0.927184, -0.000186, 0.00001)">
    <path style="fill: rgb(51, 51, 51); transform-box: fill-box; transform-origin: 50% 50%;" d="M 511.348 146.824 L 496.201 110.073 C 495.325 107.949 493.642 106.259 491.52 105.376 C 489.398 104.492 487.014 104.488 484.889 105.364 L 426.316 129.504 C 422.473 131.088 420.382 135.117 421.092 139.048 L 275.13 199.207 C 262.706 208.933 269.177 239.752 294.885 237.947 L 437.657 179.178 C 439.286 181.539 441.96 182.932 444.772 182.932 C 445.872 182.932 446.99 182.721 448.07 182.276 L 506.643 158.136 C 508.767 157.26 510.457 155.577 511.34 153.455 C 512.22 151.333 512.224 148.949 511.348 146.824 M 286.322 213.337 L 427.513 155.145 L 429.148 159.105 L 430.852 163.239 L 290.3 221.167 C 289.144 218.478 287.822 215.862 286.322 213.337 M 449.479 162.952 L 444.955 151.991 L 440.93 142.224 L 483.482 124.686 L 492.026 145.417 L 449.479 162.952" transform="matrix(1, 0, 0, 1, 0, -0.000007629395)"/>
  </g>
</svg>